<svg xmlns="http://www.w3.org/2000/svg" width="20" height="22" viewBox="0 0 20 22">
  <metadata><?xpacket begin="﻿" id="W5M0MpCehiHzreSzNTczkc9d"?>
<x:xmpmeta xmlns:x="adobe:ns:meta/" x:xmptk="Adobe XMP Core 5.6-c138 79.159824, 2016/09/14-01:09:01        ">
   <rdf:RDF xmlns:rdf="http://www.w3.org/1999/02/22-rdf-syntax-ns#">
      <rdf:Description rdf:about=""/>
   </rdf:RDF>
</x:xmpmeta>
                                                                                                    
                                                                                                    
                                                                                                    
                                                                                                    
                                                                                                    
                                                                                                    
                                                                                                    
                                                                                                    
                                                                                                    
                                                                                                    
                                                                                                    
                                                                                                    
                                                                                                    
                                                                                                    
                                                                                                    
                                                                                                    
                                                                                                    
                                                                                                    
                                                                                                    
                                                                                                    
                           
<?xpacket end="w"?></metadata>
<defs>
    <style>
      .cls-1, .cls-2 {
        fill: #fff;
      }

      .cls-1 {
        fill-opacity: 0;
      }

      .cls-2 {
        fill-rule: evenodd;
      }
    </style>
  </defs>
  <rect class="cls-1" width="20" height="22"/>
  <path class="cls-2" d="M18.659,6.849A9.828,9.828,0,0,0,15.02,3.3,9.984,9.984,0,0,0,10,2,9.987,9.987,0,0,0,4.979,3.3a9.832,9.832,0,0,0-3.64,3.545A9.339,9.339,0,0,0,0,11.738a9.3,9.3,0,0,0,1.908,5.726,9.783,9.783,0,0,0,4.929,3.519,0.6,0.6,0,0,0,.521-0.088,0.491,0.491,0,0,0,.169-0.381q0-.038-0.007-0.685T7.512,18.7l-0.3.05a3.912,3.912,0,0,1-.723.044,5.671,5.671,0,0,1-.9-0.089,2.053,2.053,0,0,1-.873-0.38,1.611,1.611,0,0,1-.573-0.78l-0.13-.292a3.155,3.155,0,0,0-.41-0.647,1.561,1.561,0,0,0-.566-0.482l-0.091-.063a0.957,0.957,0,0,1-.169-0.152,0.689,0.689,0,0,1-.117-0.178,0.106,0.106,0,0,1,.065-0.146A0.864,0.864,0,0,1,3.1,15.53l0.261,0.038a1.921,1.921,0,0,1,.645.3,2.068,2.068,0,0,1,.631.659,2.258,2.258,0,0,0,.723.793,1.563,1.563,0,0,0,.853.273,3.78,3.78,0,0,0,.742-0.064,2.625,2.625,0,0,0,.586-0.19,2.037,2.037,0,0,1,.638-1.306,9.158,9.158,0,0,1-1.335-.228,5.388,5.388,0,0,1-1.224-.495,3.486,3.486,0,0,1-1.048-.85,4.05,4.05,0,0,1-.684-1.332,6.182,6.182,0,0,1-.267-1.9A3.647,3.647,0,0,1,4.647,8.618a3.326,3.326,0,0,1,.091-2.587,1.868,1.868,0,0,1,1.12.171,7.939,7.939,0,0,1,1.088.488q0.345,0.2.553,0.342a9.65,9.65,0,0,1,5,0l0.5-.3a7.072,7.072,0,0,1,1.2-.558,1.747,1.747,0,0,1,1.055-.139,3.3,3.3,0,0,1,.1,2.587,3.645,3.645,0,0,1,1.029,2.613,6.238,6.238,0,0,1-.267,1.909,3.883,3.883,0,0,1-.69,1.332,3.62,3.62,0,0,1-1.055.843,5.392,5.392,0,0,1-1.224.495,9.108,9.108,0,0,1-1.335.228,2.228,2.228,0,0,1,.677,1.8v2.676a0.5,0.5,0,0,0,.163.38,0.578,0.578,0,0,0,.515.089,9.781,9.781,0,0,0,4.929-3.519A9.3,9.3,0,0,0,20,11.737,9.338,9.338,0,0,0,18.659,6.849Z"/>
</svg>
